<svg width="166" height="77" viewBox="0 0 166 77" xmlns="http://www.w3.org/2000/svg" class="base-logo">
<path class="base-logo" fill="#BA5EA1" fill-rule="evenodd" clip-rule="evenodd" d="M41.22 37.7901C42.33 35.18 42.885 32.39 42.885 29.42C42.885 26.48 42.33 23.705 41.22 21.095C40.08 18.485 38.535 16.205 36.585 14.255C34.635 12.335 32.355 10.805 29.745 9.66504C27.135 8.55504 24.36 8.00004 21.42 8.00004C18.3 8.00004 15.405 8.67504 12.735 10.025C10.035 11.375 7.695 13.145 5.715 15.335L5.67 3.46504C5.67 2.65504 5.415 1.96504 4.905 1.39504C4.365 0.825035 3.69 0.540039 2.88 0.540039C2.07 0.540039 1.395 0.825034 0.854998 1.39504C0.284998 1.96504 2.36741e-06 2.65503 2.2966e-06 3.46503L0 29.42V29.6451V29.7351C0.0600008 32.675 0.659995 35.4351 1.79999 38.015C2.90999 40.595 4.44 42.8301 6.39 44.7201C8.31 46.64 10.56 48.155 13.14 49.265C15.72 50.375 18.48 50.93 21.42 50.93C24.36 50.93 27.135 50.3601 29.745 49.2201C32.355 48.1101 34.635 46.5801 36.585 44.6301C38.535 42.7101 40.08 40.43 41.22 37.7901ZM36 23.3C36.81 25.22 37.215 27.26 37.215 29.42C37.215 31.6101 36.81 33.6651 36 35.585C35.16 37.505 34.035 39.1701 32.625 40.5801C31.185 42.0201 29.505 43.1451 27.585 43.9551C25.665 44.7951 23.61 45.215 21.42 45.215C19.2 45.215 17.13 44.7951 15.21 43.9551C13.29 43.1451 11.625 42.0201 10.215 40.5801C8.80499 39.1701 7.69499 37.505 6.88499 35.585C6.07499 33.6651 5.67 31.6101 5.67 29.42C5.67 27.26 6.07499 25.22 6.88499 23.3C7.69499 21.41 8.805 19.7451 10.215 18.305C11.625 16.8951 13.29 15.77 15.21 14.93C17.13 14.09 19.2 13.67 21.42 13.67C23.64 13.67 25.71 14.09 27.63 14.93C29.55 15.77 31.215 16.8951 32.625 18.305C34.035 19.7451 35.16 21.41 36 23.3ZM129.219 35.591H163.194C164.004 35.591 164.664 35.336 165.174 34.826C165.684 34.286 165.939 33.626 165.939 32.846C165.909 29.906 165.324 27.146 164.184 24.566C163.044 21.956 161.499 19.691 159.549 17.771C157.629 15.851 155.364 14.336 152.754 13.226C150.144 12.116 147.369 11.561 144.429 11.561C141.459 11.561 138.669 12.131 136.059 13.271C133.479 14.381 131.214 15.911 129.264 17.861C127.314 19.781 125.769 22.046 124.629 24.656C123.519 27.236 122.964 30.011 122.964 32.981C122.964 35.951 123.519 38.741 124.629 41.351C125.769 43.961 127.314 46.241 129.264 48.191C131.214 50.111 133.479 51.641 136.059 52.781C138.669 53.891 141.459 54.446 144.429 54.446C146.139 54.446 147.729 54.281 149.199 53.951C150.669 53.651 152.019 53.231 153.249 52.691C154.509 52.121 155.649 51.461 156.669 50.711C157.689 49.961 158.604 49.136 159.414 48.236C160.104 47.636 160.449 46.976 160.449 46.256C160.479 45.536 160.284 44.921 159.864 44.411C159.564 43.841 159.144 43.466 158.604 43.286C158.154 43.136 157.689 43.106 157.209 43.196C156.759 43.256 156.279 43.496 155.769 43.916C154.509 45.446 152.904 46.676 150.954 47.606C149.004 48.506 146.829 48.956 144.429 48.956C142.479 48.956 140.634 48.611 138.894 47.921C137.154 47.231 135.609 46.286 134.259 45.086C132.909 43.886 131.784 42.476 130.884 40.856C130.014 39.236 129.459 37.481 129.219 35.591ZM160.134 30.821H129.084C129.264 28.901 129.789 27.101 130.659 25.421C131.529 23.711 132.654 22.241 134.034 21.011C135.414 19.751 136.989 18.761 138.759 18.041C140.559 17.321 142.479 16.961 144.519 16.961C146.559 16.961 148.479 17.321 150.279 18.041C152.079 18.731 153.669 19.706 155.049 20.966C156.459 22.196 157.599 23.666 158.469 25.376C159.369 27.056 159.924 28.871 160.134 30.821ZM46 29.5101C46 26.5401 46.555 23.7501 47.665 21.1401C48.805 18.5001 50.35 16.2201 52.3 14.3001C54.25 12.3501 56.53 10.8201 59.14 9.71006C61.75 8.57006 64.525 8.00006 67.465 8.00006C70.405 8.00006 73.165 8.55506 75.745 9.66506C78.325 10.7751 80.575 12.2901 82.495 14.2101C84.445 16.1001 85.975 18.3351 87.085 20.9151C88.225 23.4951 88.825 26.2551 88.885 29.1951V29.2851V29.5101V47.4651C88.885 48.2751 88.6 48.9651 88.03 49.5351C87.49 50.1051 86.815 50.3901 86.005 50.3901C85.195 50.3901 84.52 50.1051 83.98 49.5351C83.47 48.9651 83.215 48.2751 83.215 47.4651L83.17 43.5951C81.19 45.7851 78.85 47.5551 76.15 48.9051C73.48 50.2551 70.585 50.9301 67.465 50.9301C64.525 50.9301 61.75 50.3751 59.14 49.2651C56.53 48.1251 54.25 46.5951 52.3 44.6751C50.35 42.7251 48.805 40.4451 47.665 37.8351C46.555 35.2251 46 32.4501 46 29.5101ZM51.67 29.5101C51.67 31.6701 52.075 33.7101 52.885 35.6301C53.725 37.5201 54.85 39.1851 56.26 40.6251C57.67 42.0351 59.335 43.1601 61.255 44.0001C63.175 44.8401 65.245 45.2601 67.465 45.2601C69.685 45.2601 71.755 44.8401 73.675 44.0001C75.595 43.1601 77.26 42.0351 78.67 40.6251C80.08 39.1851 81.19 37.5201 82 35.6301C82.81 33.7101 83.215 31.6701 83.215 29.5101C83.215 27.3201 82.81 25.2651 82 23.3451C81.19 21.4251 80.08 19.7601 78.67 18.3501C77.26 16.9101 75.595 15.7851 73.675 14.9751C71.755 14.1351 69.685 13.7151 67.465 13.7151C65.275 13.7151 63.22 14.1351 61.3 14.9751C59.38 15.7851 57.7 16.9101 56.26 18.3501C54.85 19.7601 53.725 21.4251 52.885 23.3451C52.075 25.2651 51.67 27.3201 51.67 29.5101ZM101.275 15.8706C102.368 15.2473 103.516 14.8382 104.723 14.639C105.916 14.4564 107.127 14.4949 108.364 14.7594C109.586 15.0292 110.724 15.565 111.785 16.3793L111.791 16.3836L111.796 16.3877C112.795 17.1308 113.612 17.9837 114.255 18.9456C114.884 19.8855 115.32 20.9805 115.553 22.2452L115.558 22.2721L115.564 22.2986C115.635 22.5847 115.721 22.868 115.823 23.1482C115.946 23.4859 116.117 23.7974 116.339 24.0765L116.344 24.0831L116.35 24.0896C116.615 24.4113 116.944 24.6597 117.32 24.8387C117.768 25.0515 118.27 25.108 118.772 25.0781L118.781 25.0776L118.789 25.0769C119.609 25.0128 120.291 24.6263 120.79 23.9757C121.304 23.3065 121.457 22.4999 121.346 21.6534C121.103 19.8035 120.461 18.0319 119.436 16.3433C118.413 14.6585 117.118 13.2148 115.557 12.0165C113.882 10.7305 112.055 9.81826 110.082 9.28828L110.069 9.28493C108.116 8.78959 106.163 8.65226 104.216 8.87735L104.209 8.87818L104.202 8.87912C102.257 9.13488 100.394 9.75138 98.6176 10.7221L98.6097 10.7264C96.8308 11.7211 95.2965 13.0629 94.0085 14.741L93.9172 14.8599L93.9088 14.8841C93.879 14.9143 93.8501 14.9473 93.8224 14.9834C92.5344 16.6615 91.6348 18.4904 91.1338 20.466L91.1325 20.4709C90.6412 22.4542 90.5203 24.4226 90.7764 26.3702C91.0359 28.3438 91.6608 30.2152 92.6467 31.979C95.3563 36.2837 100.299 39.3254 107.088 39.8C109.108 40.0594 110.937 40.6458 112.575 41.5592C114.213 42.4727 115.672 43.6821 116.953 45.1876C118.333 46.8056 119.298 48.5875 119.85 50.5333C120.425 52.4594 120.626 54.4141 120.453 56.3975C120.262 58.3583 119.713 60.2534 118.809 62.0828C117.926 63.8924 116.72 65.4687 115.189 66.8115L115.113 66.9975L115.08 67.0271C115.06 67.0046 115.039 67.0032 115.016 67.023C114.994 67.0427 114.973 67.0414 114.953 67.0188C113.422 68.3617 111.712 69.3639 109.823 70.0255C107.914 70.6645 105.975 70.9515 104.005 70.8864C102.059 70.8016 100.157 70.3589 98.2993 69.5585C96.4222 68.7355 94.7727 67.5136 93.3508 65.8929C92.025 64.4269 91.0046 62.8324 90.2897 61.1093C89.5748 59.3863 89.2316 57.4965 89.2599 55.4401C89.2425 55.057 89.204 54.6725 89.1444 54.2867C89.0847 53.9008 88.9702 53.5432 88.8007 53.2139C88.6115 52.862 88.345 52.5581 88.0009 52.3022C87.657 52.0463 87.1905 51.8778 86.6017 51.7969C85.8015 51.7021 85.0863 51.9312 84.456 52.4842C83.8482 53.0173 83.5126 53.7699 83.449 54.7419C83.2832 57.2773 83.6682 59.8276 84.6039 62.3927C85.5396 64.9578 86.9059 67.2645 88.703 69.313C90.6382 71.519 92.8701 73.2458 95.3985 74.4933C97.9297 75.6985 100.546 76.4107 103.248 76.6298C105.952 76.8066 108.648 76.4736 111.334 75.6307C114.001 74.7653 116.437 73.365 118.643 71.4297L118.786 71.1845C118.871 71.19 118.936 71.173 118.981 71.1335C121.187 69.1983 122.892 66.965 124.098 64.4339C125.306 61.8604 125.998 59.2214 126.175 56.5169C126.355 53.7701 126.012 51.0635 125.146 48.3969C124.284 45.6881 122.885 43.2306 120.949 41.0246C119.152 38.9761 117.043 37.321 114.622 36.0593C113.616 35.5355 112.164 35.0775 110.81 34.721C109.594 34.4012 108.345 34.2501 107.095 34.0989C105.888 33.9529 104.682 33.807 103.506 33.5095C100.372 32.7163 98.2535 30.8832 97.5267 28.9833L97.5211 28.9723C96.9373 27.8667 96.5791 26.703 96.4436 25.4756C96.324 24.2589 96.4281 23.0358 96.7609 21.8012L96.7622 21.7961C97.0794 20.592 97.6204 19.4916 98.3899 18.4892L98.5201 18.3196C99.2912 17.3149 100.208 16.5007 101.275 15.8706Z"></path>
</svg>